<svg clip-rule="evenodd" fill-rule="evenodd" height="512" stroke-linejoin="round" stroke-miterlimit="2" viewBox="0 0 24 24" width="512" xmlns="http://www.w3.org/2000/svg"><g id="Icon"><path d="m11.162 12.838-9.048-3.016c-.518-.173-.867-.659-.864-1.205s.356-1.029.876-1.196l18.973-6.11c.451-.145.946-.026 1.281.309s.454.83.309 1.281l-6.11 18.973c-.167.52-.65.873-1.196.876s-1.032-.346-1.205-.864zm-7.889-4.211 8.719 2.907c.224.074.4.25.474.474l2.907 8.719 5.747-17.847z"/><path d="m12.285 12.775c-.292.293-.768.293-1.06 0-.293-.292-.293-.768 0-1.06l9.801-9.801c.292-.293.768-.293 1.06 0 .293.292.293.768 0 1.06z"/></g></svg>